 <svg version="1.0" xmlns="http://www.w3.org/2000/svg" width="700.000000pt" height="149.000000pt" viewBox="0 0 700.000000 149.000000" preserveAspectRatio="xMidYMid meet">
<metadata>
Created by potrace 1.12, written by Peter Selinger 2001-2015
</metadata>
<g transform="translate(0.000000,149.000000) scale(0.100000,-0.100000)" fill="#000000" stroke="none">
<path d="M0 805 l0 -685 628 2 c549 3 627 5 627 18 0 13 -75 15 -605 17 l-605
3 0 642 0 643 3455 0 3455 0 0 -643 0 -643 -602 1 c-598 0 -603 0 -603 -20 0
-20 5 -20 625 -20 l625 0 0 685 0 685 -3500 0 -3500 0 0 -685z"></path>
<path d="M576 1050 c-41 -13 -73 -46 -93 -99 -25 -64 -26 -301 -2 -346 30 -54
55 -69 113 -69 60 1 92 15 101 45 10 31 -6 41 -43 28 -77 -27 -112 13 -119
133 -7 111 10 193 48 231 30 29 33 30 99 15 20 -4 25 36 6 51 -20 16 -75 22
-110 11z"></path>
<path d="M1905 1046 c-112 -42 -101 -131 30 -256 75 -72 92 -121 59 -169 -14
-20 -23 -22 -68 -18 -28 3 -60 6 -71 8 -15 3 -21 -2 -23 -20 -6 -38 22 -51
106 -51 71 0 75 1 108 34 31 31 34 39 34 93 0 69 -7 81 -100 178 -80 83 -90
105 -59 136 19 19 29 21 86 16 52 -5 65 -3 70 9 9 25 -18 43 -77 49 -36 3 -69
0 -95 -9z"></path>
<path d="M5500 1051 c-93 -19 -122 -74 -128 -242 -5 -137 12 -215 54 -248 33
-26 139 -29 184 -6 l30 16 0 135 0 135 -62 -3 c-56 -3 -63 -5 -66 -25 -3 -17
2 -22 25 -25 l28 -3 3 -87 c2 -79 1 -88 -17 -98 -31 -16 -70 -2 -88 33 -21 41
-29 186 -14 258 15 73 46 104 104 103 23 0 49 -2 57 -4 19 -6 26 33 8 47 -19
15 -77 22 -118 14z"></path>
<path d="M6365 1046 c-68 -26 -90 -74 -65 -142 6 -15 41 -59 79 -98 96 -99
110 -135 75 -185 -14 -20 -23 -22 -68 -18 -28 3 -60 6 -71 8 -15 3 -21 -2 -23
-20 -6 -38 22 -51 106 -51 71 0 75 1 108 34 31 31 34 39 34 93 0 69 -7 81
-100 178 -80 83 -90 105 -59 136 19 19 29 21 86 16 52 -5 65 -3 70 9 9 25 -18
43 -77 49 -36 3 -69 0 -95 -9z"></path>
<path d="M920 794 l0 -255 33 3 32 3 3 103 c2 94 4 102 22 102 35 0 57 -50 86
-188 4 -19 10 -23 37 -20 32 3 32 4 30 52 -1 31 -12 70 -32 110 l-30 61 26 27
c45 47 50 172 8 218 -24 26 -76 40 -152 40 l-63 0 0 -256z m147 180 c23 -23
25 -31 21 -81 -5 -62 -30 -93 -74 -93 -24 0 -24 1 -24 100 l0 100 25 0 c14 0
37 -12 52 -26z"></path>
<path d="M1350 1041 c0 -5 25 -73 55 -151 54 -139 55 -143 55 -246 l0 -105 33
3 32 3 5 115 c6 118 9 131 105 373 6 14 1 17 -29 17 l-35 0 -38 -117 c-20 -64
-38 -112 -39 -107 -1 5 -17 57 -35 117 l-32 107 -39 0 c-21 0 -38 -4 -38 -9z"></path>
<path d="M2280 1020 c0 -30 1 -30 55 -30 l55 0 0 -226 0 -225 33 3 32 3 3 223
2 222 55 0 c54 0 55 0 55 30 l0 30 -145 0 -145 0 0 -30z"></path>
<path d="M2845 1038 c-2 -7 -34 -114 -70 -238 -36 -124 -68 -233 -71 -243 -5
-16 -1 -18 32 -15 37 3 38 4 53 63 l16 60 68 3 c75 3 75 4 97 -85 10 -40 13
-43 46 -43 43 0 47 -23 -44 280 -65 219 -68 225 -95 228 -16 2 -29 -2 -32 -10z
m54 -193 c12 -44 24 -88 27 -97 5 -16 -2 -18 -49 -18 l-54 0 25 100 c14 55 27
99 28 97 1 -1 11 -38 23 -82z"></path>
<path d="M3267 1043 c-4 -3 -7 -118 -7 -255 l0 -248 105 0 105 0 0 30 c0 29 0
29 -67 32 l-68 3 -3 223 -2 222 -29 0 c-15 0 -31 -3 -34 -7z"></path>
<path d="M3984 1037 c-2 -7 -3 -120 -2 -252 l3 -240 33 -3 32 -3 0 255 0 256
-30 0 c-17 0 -33 -6 -36 -13z"></path>
<path d="M4297 1043 c-4 -3 -7 -118 -7 -255 l0 -249 33 3 32 3 -1 173 -2 172
39 -112 c42 -120 50 -134 72 -125 13 5 87 183 87 211 0 8 5 18 10 21 7 4 9 -2
6 -17 -3 -12 -7 -90 -8 -173 l-3 -150 33 -3 32 -3 0 256 0 256 -31 -3 c-31 -3
-33 -6 -78 -135 -25 -72 -48 -134 -51 -137 -3 -2 -27 58 -55 135 -46 131 -50
139 -75 139 -15 0 -30 -3 -33 -7z"></path>
<path d="M4976 1033 c-49 -164 -136 -470 -136 -480 0 -10 10 -13 32 -11 30 3
34 7 51 66 l19 62 68 0 68 0 19 -62 c17 -59 21 -63 51 -66 21 -2 32 1 32 10 0
7 -32 122 -71 256 -72 241 -72 242 -100 242 -18 0 -30 -6 -33 -17z m63 -205
c11 -48 21 -90 21 -93 0 -3 -23 -5 -51 -5 -48 0 -51 1 -45 23 3 12 14 57 23
99 10 43 20 74 24 70 3 -4 16 -46 28 -94z"></path>
<path d="M5877 1043 c-4 -3 -7 -118 -7 -255 l0 -249 103 3 c101 3 102 3 102
28 0 24 -3 25 -68 28 l-68 3 3 92 3 92 58 3 c56 3 57 4 57 32 0 30 0 30 -60
30 l-60 0 0 70 0 69 68 3 c65 3 67 4 70 31 l3 27 -99 0 c-54 0 -102 -3 -105
-7z"></path>
<path d="M2313 230 c-33 -13 -43 -42 -43 -119 0 -82 19 -111 70 -111 58 0 88
61 77 158 -7 68 -46 95 -104 72z m65 -32 c7 -7 12 -40 12 -78 0 -53 -4 -70
-19 -84 -44 -40 -84 6 -78 91 2 28 9 59 16 67 16 19 52 21 69 4z"></path>
<path d="M3063 225 c-30 -21 -47 -78 -39 -133 9 -65 29 -92 69 -92 46 0 67 18
78 69 26 115 -37 206 -108 156z m77 -34 c16 -30 12 -123 -6 -149 -36 -52 -84
-10 -84 76 0 29 5 62 10 73 14 26 66 26 80 0z"></path>
<path d="M3484 230 c-38 -15 -54 -50 -54 -116 0 -77 24 -114 74 -114 45 0 56
16 56 77 0 57 -13 72 -47 58 -16 -6 -15 -8 5 -16 20 -8 23 -15 20 -51 -3 -38
-6 -43 -29 -46 -39 -5 -54 22 -54 95 0 56 3 67 23 84 16 13 33 17 55 13 30 -5
31 -5 13 10 -22 18 -31 19 -62 6z"></path>
<path d="M1500 115 c0 -66 4 -115 9 -115 6 0 11 21 13 47 3 45 5 48 38 54 40
8 60 32 60 69 0 38 -29 60 -78 60 l-42 0 0 -115z m85 56 c0 -37 -22 -58 -49
-48 -10 4 -16 18 -16 40 0 41 7 49 40 45 21 -3 25 -8 25 -37z"></path>
<path d="M1872 118 c3 -120 19 -153 28 -58 l5 55 35 0 35 0 3 -58 c2 -40 7
-57 15 -54 8 2 13 40 15 115 2 93 0 112 -12 112 -10 0 -16 -13 -18 -42 -3 -42
-4 -43 -38 -43 -34 0 -35 1 -38 43 -2 29 -8 42 -18 42 -12 0 -14 -19 -12 -112z"></path>
<path d="M2656 221 c5 -5 18 -11 29 -13 18 -3 20 -12 23 -106 1 -56 7 -102 12
-102 5 0 11 46 12 103 l3 102 28 3 c56 7 24 22 -45 22 -43 0 -68 -4 -62 -9z"></path>
<path d="M3820 114 c0 -88 3 -115 13 -112 6 3 13 25 15 51 5 69 40 62 59 -12
5 -19 14 -36 21 -39 17 -5 15 33 -4 69 -14 28 -14 32 0 48 21 23 21 75 0 95
-9 10 -33 16 -60 16 l-44 0 0 -116z m93 74 c17 -26 -7 -68 -38 -68 -22 0 -25
4 -25 38 0 21 3 42 7 46 12 11 45 2 56 -16z"></path>
<path d="M4250 206 c-17 -46 -70 -198 -70 -202 0 -2 5 -4 11 -4 5 0 17 16 25
36 14 32 18 35 52 32 31 -2 39 -8 51 -36 15 -32 31 -43 31 -19 0 23 -73 217
-82 217 -4 0 -13 -11 -18 -24z m36 -63 c12 -56 11 -57 -18 -57 -16 0 -28 4
-28 10 1 24 22 84 29 84 5 0 12 -17 17 -37z"></path>
<path d="M4600 114 c0 -88 3 -115 13 -111 7 2 12 22 13 48 0 41 3 44 32 50 47
10 62 27 62 70 0 45 -18 59 -79 59 l-41 0 0 -116z m90 80 c10 -11 11 -23 4
-42 -7 -21 -16 -27 -39 -27 -28 0 -30 2 -27 35 2 19 6 38 9 43 8 13 40 8 53
-9z"></path>
<path d="M4979 226 c-2 -2 -3 -54 -1 -115 3 -117 19 -151 24 -53 l3 57 40 0
40 0 0 -54 c0 -34 5 -56 13 -59 9 -3 12 25 12 113 0 89 -3 116 -12 112 -8 -2
-13 -20 -13 -43 0 -39 0 -39 -40 -39 -40 0 -40 0 -43 43 -3 37 -10 50 -23 38z"></path>
<path d="M5360 225 c0 -3 14 -35 30 -72 19 -41 30 -82 30 -109 0 -24 5 -44 10
-44 6 0 10 22 10 49 0 34 9 69 30 112 16 35 27 65 25 67 -10 10 -32 -20 -45
-58 -7 -22 -16 -40 -20 -40 -3 0 -12 17 -19 38 -8 20 -18 43 -23 50 -10 12
-28 17 -28 7z"></path>
</g>
</svg>